Results
version=1
nRows=11
nColumns=35
inDegrees=yes
endheader
time	/jointset/boatJoint/bJoint_3/value	/jointset/boatJoint/bJoint_3/speed	/jointset/seatJoint/seatpos/value	/jointset/seatJoint/seatpos/speed	/jointset/starboardlockJoint/slocangle/value	/jointset/starboardlockJoint/slocangle/speed	/jointset/starboardoarJoint/soarinout/value	/jointset/starboardoarJoint/soarinout/speed	/jointset/starboardbladeJoint/sblpos/value	/jointset/starboardbladeJoint/sblpos/speed	/jointset/hipJoint/hipangle/value	/jointset/hipJoint/hipangle/speed	/jointset/knee_Joint/kneeangle/value	/jointset/knee_Joint/kneeangle/speed	/jointset/foot_Joint/footangle/value	/jointset/foot_Joint/footangle/speed	/jointset/lbackJoint/lbackangle/value	/jointset/lbackJoint/lbackangle/speed	/jointset/upper_arm_left_Joint/uarmleft_out/value	/jointset/upper_arm_left_Joint/uarmleft_out/speed	/jointset/upper_arm_left_Joint/uarmleft_trn/value	/jointset/upper_arm_left_Joint/uarmleft_trn/speed	/jointset/upper_arm_left_Joint/uarmleft_up/value	/jointset/upper_arm_left_Joint/uarmleft_up/speed	/jointset/lower_arm_left_Joint/se_inout/value	/jointset/lower_arm_left_Joint/se_inout/speed	/jointset/lower_arm_left_Joint/se_updown/value	/jointset/lower_arm_left_Joint/se_updown/speed	/jointset/handle_left_Joint/handleleft_out/value	/jointset/handle_left_Joint/handleleft_out/speed	/jointset/handle_left_Joint/handleleft_trn/value	/jointset/handle_left_Joint/handleleft_trn/speed	/jointset/handle_left_Joint/handleleft_up/value	/jointset/handle_left_Joint/handleleft_up/speed
      0.02000000	     -0.00000006	     -0.00000000	     -0.65413192	      0.23739684	     77.22027266	     -6.31640393	     18.00031139	     -2.31593248	    -18.00031139	      2.31593248	     23.65056290	     11.10518615	    144.70751894	    -29.91114553	     78.35808185	    -18.80595938	     11.25053618	     12.62597494	    -12.47399729	    -31.95985858	    -43.37676601	     22.00796980	    -85.12241889	     12.86600120	      4.51535625	     19.64216467	     -5.23571327	    -16.68538697	     -6.88171433	     -4.31613937	     49.61751599	     -0.50752374	     34.60236361	      2.62992993
      0.02200000	      0.00003211	      0.03217804	     -0.65369174	      0.19391359	     77.21026277	     -3.98706964	     17.99686798	     -1.05004206	    -17.99686798	      1.05004206	     23.67117009	      9.08545049	    144.65205183	    -24.43840242	     78.32322192	    -15.35295192	     11.27706931	     12.47803576	    -12.54150328	    -32.19967217	    -43.32395643	     29.05347483	    -85.09826857	     10.37017255	      4.55871796	     21.25367515	     -5.30086880	    -43.43673151	     -6.89898065	    -18.25723444	     49.61542622	     -1.91855242	     34.59162217	     -7.92081251
      0.02400000	      0.00012127	      0.05328398	     -0.65337624	      0.12046774	     77.20272295	     -4.05914841	     17.99593811	     -0.04423102	    -17.99593811	      0.04423102	     23.68596083	      5.65066346	    144.61228609	    -15.18488850	     78.29824692	     -9.53422505	     11.29563922	      5.11616408	    -12.59172178	    -15.82636533	    -43.26804015	     24.86713752	    -85.08267107	      5.27279756	      4.59255597	     11.14263921	     -5.38591555	    -34.87018248	     -6.91257018	    -12.66261349	     49.61409337	     -1.38460036	     34.56409417	     -7.25347288
      0.02600000	      0.00022880	      0.04974247	     -0.65319655	      0.06698183	     77.19236812	     -6.62015301	     17.99590605	     -0.21548624	    -17.99590605	      0.21548624	     23.69439173	      3.14387059	    144.58963613	     -8.44386583	     78.28402786	     -5.29999524	     11.29612572	     -4.35776612	    -12.60230085	      4.31074814	    -43.22882128	     14.18027476	    -85.07521259	      3.11560634	      4.60238060	     -0.33254204	     -5.42278831	      0.03851736	     -6.91407571	      6.80651300	     49.61228818	     -1.25156861	     34.55708798	      4.18075000
      0.02800000	      0.00030627	      0.02524539	     -0.65307007	      0.07086340	     77.17571803	     -9.96708483	     17.99442158	     -1.36884544	    -17.99442158	      1.36884544	     23.70032984	      3.32756066	    144.57369048	     -8.93381559	     78.27402032	     -5.60625493	     11.28131124	     -9.17702473	    -12.58280909	     11.95375613	    -43.20826663	      8.07275155	    -85.06641858	      6.64457140	      4.59802992	     -1.60216292	     -5.38941260	     29.46965051	     -6.90739265	     22.64086120	     49.60568882	     -3.11158956	     34.58986176	     16.91223879
      0.03000000	      0.00032603	     -0.00489637	     -0.65287774	      0.12779633	     77.15332130	    -12.08061934	     17.99046139	     -2.47657725	    -17.99046139	      2.47657725	     23.70936424	      6.00508003	    144.54944192	    -16.11312392	     78.25880616	    -10.10804389	     11.26427796	     -6.70598445	    -12.56571572	      2.75443763	    -43.18991136	     11.89424287	    -85.04669586	     13.07938237	      4.60303922	      7.72890377	     -5.32295423	     31.83363454	     -6.90430603	     23.71171041	     49.59200116	     -5.62042014	     34.65025185	     21.74001447
      0.03200000	      0.00029355	     -0.02474751	     -0.65255216	      0.19480401	     77.12885081	    -12.01192814	     17.98526935	     -2.45294582	    -17.98526935	      2.45294582	     23.72467167	      9.16429740	    144.50838828	    -24.56619066	     78.23305995	    -15.40189326	     11.25710978	     -0.30124738	    -12.57557226	    -12.11884742	    -43.15746429	     20.55316271	    -85.01643914	     16.00825722	      4.62808951	     15.77628295	     -5.27626444	     12.91783885	     -6.91029687	     14.20204872	     49.57558219	     -5.31295333	     34.70897477	     16.53674611
      0.03400000	      0.00023840	     -0.02755191	     -0.65211998	      0.22962381	     77.10638259	    -10.28003367	     17.98156122	     -1.06159025	    -17.98156122	      1.06159025	     23.74501868	     10.81882063	    144.45388034	    -28.96416767	     78.19889903	    -18.14534704	     11.26218479	      4.77124584	    -12.60901485	    -19.23200478	    -43.10988203	     25.93683324	    -84.98751295	     11.66803420	      4.65844149	     12.27081744	     -5.27240732	     -7.68460020	     -6.91762863	      5.00461603	     49.56640404	     -0.43507334	     34.74264558	      5.94104876
      0.03600000	      0.00019058	     -0.01949399	     -0.65165859	      0.22705832	     77.08783530	     -8.39094659	     17.98126483	      0.69257152	    -17.98126483	     -0.69257152	     23.76677481	     10.71528978	    144.39567454	    -28.64790523	     78.16244935	    -17.93261545	     11.27379974	      6.25121033	    -12.64620956	    -16.90773398	    -43.05732246	     25.91228674	    -84.97215552	      3.74292935	      4.67223621	      1.36092671	     -5.29996467	    -17.72905697	     -6.91552352	      1.49558998	     49.57189905	      6.03576638	     34.74712140	     -2.79825924
      0.03800000	      0.00015933	     -0.01308174	     -0.65121941	      0.21299322	     77.07194834	     -7.80744507	     17.98361336	      1.36941061	    -17.98361336	     -1.36941061	     23.78751637	     10.06696150	    144.34025665	    -26.87986825	     78.12777302	    -16.81290675	     11.28564731	      5.41770078	    -12.67599574	    -13.60611172	    -43.00707346	     24.62656094	    -84.96978164	     -0.04677564	      4.66798831	     -3.39461059	     -5.33696797	    -18.24012964	     -6.90476248	      1.43984936	     49.58861291	      8.66010404	     34.73662828	     -4.56558329
      0.04000000	      0.00013247	     -0.01535171	     -0.65079966	      0.20937039	     77.05547947	     -8.91313746	     17.98570962	      0.49700029	    -17.98570962	     -0.49700029	     23.80737032	      9.91017700	    144.28727701	    -26.42882054	     78.09464733	    -16.51864354	     11.29520302	      4.18291881	    -12.70399352	    -15.34376217	    -42.95684881	     26.29198440	    -84.96744236	      3.51424091	      4.66702076	      4.39410787	     -5.37117729	    -16.12926648	     -6.89818034	      0.98996353	     49.60401967	      5.33548980	     34.73156183	      0.24594088
